<svg id="Слой_1" xmlns="http://www.w3.org/2000/svg" viewBox="0 0 688.496 301.621">
  <style>
    .st0{fill:#544594}
  </style>
  <path class="st0" d="M0 136.719L55.076 1.683H89.6l54.985 135.037h-38.399l-9.465-23.94H46.874l-9.194 23.94H0zm57.42-52.837h29.025L72.022 45.729 57.42 83.882zM157.116 136.719V2.618h66.253c15.744 0 27.493 3.961 35.245 11.882 5.589 5.712 8.384 12.958 8.384 21.74 0 14.063-6.651 24.121-19.951 30.174 8.362 2.91 14.739 7.009 19.131 12.293 4.392 5.285 6.589 12.42 6.589 21.406 0 11.43-4.315 20.388-12.945 26.875-8.631 6.488-20.644 9.73-36.039 9.73h-66.667zm35.065-80.891h22.483c11.271 0 16.908-4.067 16.908-12.206 0-3.722-1.38-6.592-4.138-8.611s-6.774-3.028-12.051-3.028H192.18v23.845zm0 51.527h27.618c5.457 0 9.685-1.11 12.684-3.334 2.998-2.224 4.498-5.432 4.498-9.623 0-3.812-1.47-6.813-4.408-9.004-2.938-2.192-7.316-3.288-13.134-3.288h-27.258v25.249zM284.665 69.715c0-9.483 1.787-18.513 5.363-27.09 3.575-8.577 8.429-15.985 14.558-22.225 6.13-6.239 13.521-11.198 22.175-14.879S344.639 0 354.434 0s18.99 1.824 27.585 5.475 15.933 8.579 22.013 14.786c6.079 6.207 10.87 13.601 14.375 22.178 3.504 8.577 5.256 17.67 5.256 27.277 0 9.47-1.783 18.504-5.35 27.102-3.565 8.598-8.406 16.012-14.521 22.242s-13.486 11.183-22.117 14.859c-8.631 3.675-17.832 5.513-27.602 5.513-13.041 0-24.879-3.1-35.516-9.298s-18.944-14.61-24.924-25.232c-5.98-10.624-8.968-22.352-8.968-35.187zm36.688 0c0 9.926 3.124 18.447 9.374 25.563s14.152 10.674 23.707 10.674c9.675 0 17.578-3.512 23.707-10.534 6.13-7.022 9.194-15.591 9.194-25.703 0-9.924-3.125-18.446-9.374-25.562-6.251-7.115-14.213-10.675-23.888-10.675-9.555 0-17.396 3.513-23.526 10.535s-9.194 15.591-9.194 25.702zM440.789 77.898V2.618h36.327v74.599c0 9.423 2.103 16.537 6.31 21.342 4.205 4.805 10.035 7.206 17.487 7.206 7.45 0 13.28-2.309 17.487-6.926 4.205-4.617 6.31-11.513 6.31-20.686V2.618h36.327v74.344c0 10.661-1.411 19.981-4.231 27.962-2.819 7.98-6.899 14.464-12.24 19.451-5.341 4.988-11.687 8.713-19.037 11.175s-15.676 3.694-24.976 3.694c-18.93 0-33.623-5.097-44.079-15.29s-15.685-25.544-15.685-46.056zM575.099 35.255V2.618h113.397v32.637h-38.851v101.464h-35.786V35.255h-38.76zM442.231 240.274v-75.28h36.327v74.6c0 9.423 2.103 16.537 6.31 21.342 4.205 4.805 10.035 7.206 17.487 7.206 7.45 0 13.28-2.309 17.487-6.926 4.205-4.617 6.31-11.513 6.31-20.686v-75.536h36.327v74.345c0 10.661-1.411 19.981-4.231 27.962-2.819 7.98-6.899 14.464-12.24 19.451-5.341 4.988-11.687 8.713-19.037 11.175s-15.676 3.694-24.976 3.694c-18.93 0-33.623-5.097-44.079-15.29s-15.685-25.545-15.685-46.057zM573.996 279.176l20.011-24.688c12.938 10.724 26.93 16.085 41.975 16.085 4.735 0 8.361-.825 10.879-2.479 2.518-1.65 3.776-4.035 3.776-7.153 0-2.867-1.484-5.205-4.45-7.014-2.967-1.808-8.706-3.741-17.216-5.798-4.376-1.06-8.178-2.042-11.405-2.946-3.229-.902-6.651-2.041-10.271-3.413-3.62-1.37-6.697-2.806-9.231-4.302-2.533-1.496-5.007-3.304-7.42-5.424-2.414-2.119-4.344-4.41-5.791-6.873-1.448-2.463-2.61-5.346-3.484-8.65-.875-3.304-1.312-6.921-1.312-10.848 0-12.656 4.534-22.974 13.604-30.954 9.07-7.979 21.259-11.97 36.567-11.97 21.224 0 38.96 5.923 53.211 17.768l-17.982 26.278c-12.073-8.791-24.116-13.187-36.127-13.187-4.196 0-7.403.827-9.62 2.479-2.218 1.652-3.326 3.819-3.326 6.499 0 3.118 1.482 5.534 4.449 7.248 2.966 1.715 8.915 3.633 17.846 5.751 7.912 1.809 14.639 3.787 20.181 5.938 5.542 2.15 10.528 4.848 14.956 8.089 4.429 3.242 7.726 7.187 9.895 11.83 2.169 4.645 3.254 10.085 3.254 16.318 0 13.529-4.752 24.189-14.257 31.982-9.504 7.794-22.194 11.689-38.073 11.689-11.676 0-22.749-1.887-33.217-5.657-10.47-3.77-19.61-9.304-27.422-16.598z"/>
</svg>