<?xml version="1.0" encoding="utf-8"?>
<!-- Generator: Adobe Illustrator 21.1.0, SVG Export Plug-In . SVG Version: 6.00 Build 0)  -->
<svg version="1.1" id="Слой_1" xmlns="http://www.w3.org/2000/svg" xmlns:xlink="http://www.w3.org/1999/xlink" x="0px" y="0px"
	 viewBox="0 0 90.527 148.149" style="enable-background:new 0 0 90.527 148.149;" xml:space="preserve">
<style type="text/css">
	.st0{fill:#FFFFFF;}
</style>
<path class="st0" d="M45.268,0C20.272,0,0,20.181,0,45.07c0,5.63,1.086,10.996,2.963,15.967l0.066,0.165
	c1.054,2.716,11.786,25.449,13.317,27.885l28.922,59.062l28.922-59.07c1.539-2.436,12.263-25.185,13.317-27.885l0.082-0.165h-0.025
	c1.877-4.963,2.963-10.329,2.963-15.967C90.535,20.189,70.264,0,45.268,0z M45.268,67.572c-11.835,0-21.432-9.712-21.432-21.729
	c0-11.984,9.597-21.679,21.432-21.679S66.7,33.86,66.7,45.844C66.7,57.86,57.103,67.572,45.268,67.572z"/>
</svg>
