<?xml version="1.0" encoding="utf-8"?><svg xmlns="http://www.w3.org/2000/svg" xmlns:xlink="http://www.w3.org/1999/xlink"><symbol id="about-us" viewBox="0 0 2621.585 2124" xmlns="http://www.w3.org/2000/svg"><style>.ast0{fill:#fff}</style><path class="ast0" d="M1272.504 828.72c-21.802 0-39.694 8.016-53.681 24.039-13.987 16.023-20.979 35.575-20.979 58.646 0 22.649 7.128 42.092 21.389 58.329 14.261 16.237 32.292 24.356 54.094 24.356 22.076 0 40.109-8.014 54.094-24.036 13.987-16.023 20.979-35.575 20.979-58.649 0-22.644-7.131-42.09-21.39-58.327-14.262-16.235-32.43-24.358-54.506-24.358zm-318.102 50.998c25.718 0 38.58-9.28 38.58-27.851 0-8.493-3.149-15.042-9.442-19.648s-15.457-6.909-27.498-6.909h-52.944v54.409h51.304zm40.865 67.463c-6.704-5.002-16.693-7.502-29.969-7.502h-62.197v57.613h63.018c12.452 0 22.099-2.533 28.942-7.608 6.841-5.075 10.263-12.395 10.263-21.958.001-8.698-3.353-15.545-10.057-20.545zm-399.662-3.45h66.229l-32.91-87.057z"/><path class="ast0" d="M0 0v2124h2621.585V0H0zm706.879 1064.296l-21.597-54.626h-113.74l-20.979 54.626h-85.978v-.002l125.672-308.123h78.776l125.464 308.125h-87.618zm350.564-22.206c-19.694 14.804-47.105 22.202-82.233 22.202H823.09v.002-305.99h151.175c35.924 0 62.733 9.038 80.422 27.112 12.753 13.034 19.13 29.567 19.13 49.606 0 32.089-15.176 55.039-45.524 68.851 19.08 6.64 33.631 15.993 43.653 28.05 10.022 12.059 15.035 28.34 15.035 48.844 0 26.081-9.846 46.521-29.538 61.323zm361.643-68.841c-8.135 19.619-19.181 36.536-33.134 50.751-13.953 14.215-30.772 25.517-50.466 33.905-19.694 8.386-40.689 12.579-62.982 12.579-29.757 0-56.769-7.073-81.04-21.216-24.271-14.142-43.226-33.337-56.871-57.574-13.645-24.242-20.463-51.002-20.463-80.289 0-21.638 4.078-42.243 12.237-61.813 8.157-19.571 19.233-36.474 33.218-50.713 13.987-14.236 30.852-25.551 50.599-33.951 19.746-8.399 40.794-12.598 63.144-12.598s43.331 4.162 62.943 12.493c19.612 8.331 36.356 19.575 50.229 33.739 13.871 14.163 24.803 31.035 32.801 50.605 7.995 19.571 11.993 40.319 11.993 62.24-.001 21.609-4.069 42.223-12.208 61.842zm51.285-43.172V758.304h82.89v170.219c0 21.501 4.799 37.734 14.398 48.698 9.595 10.964 22.898 16.443 39.901 16.443 16.999 0 30.302-5.269 39.902-15.804 9.595-10.535 14.398-26.27 14.398-47.201V758.304h82.89v169.637c0 24.326-3.22 45.592-9.654 63.803-6.432 18.209-15.742 33.004-27.929 44.383-12.187 11.382-26.667 19.881-43.438 25.499-16.771 5.618-35.769 8.429-56.99 8.429-43.194 0-76.72-11.63-100.579-34.888-23.857-23.258-35.789-58.286-35.789-105.09zm277.671 368.374c0 24.326-3.22 45.592-9.654 63.803-6.432 18.209-15.742 33.004-27.929 44.383-12.187 11.382-26.667 19.881-43.438 25.499-16.771 5.618-35.769 8.429-56.99 8.429-43.194 0-76.72-11.63-100.579-34.889s-35.79-58.288-35.79-105.092v-171.773h82.89v170.221c0 21.501 4.799 37.734 14.398 48.698 9.595 10.964 22.898 16.443 39.902 16.443 16.999 0 30.302-5.269 39.901-15.804 9.595-10.535 14.398-26.27 14.398-47.201v-172.357h82.891v169.64zm251.518 115.009c-21.686 17.784-50.642 26.672-86.874 26.672-26.642 0-51.908-4.306-75.794-12.908-23.89-8.602-44.746-21.23-62.571-37.873l45.661-56.333c29.522 24.47 61.448 36.703 95.778 36.703 10.804 0 19.078-1.882 24.824-5.656 5.746-3.765 8.616-9.207 8.616-16.322 0-6.542-3.386-11.877-10.154-16.005-6.77-4.125-19.865-8.536-39.283-13.23-9.985-2.419-18.66-4.659-26.024-6.722-7.368-2.058-15.176-4.657-23.436-7.788-8.26-3.126-15.281-6.403-21.063-9.816-5.78-3.413-11.425-7.539-16.931-12.376-5.508-4.835-9.912-10.063-13.214-15.683-3.304-5.62-5.955-12.198-7.95-19.737-1.997-7.539-2.994-15.792-2.994-24.753 0-28.878 10.346-52.422 31.041-70.63 20.696-18.206 48.508-27.313 83.438-27.313 48.429 0 88.898 13.515 121.416 40.543l-41.031 59.961c-27.548-20.059-55.028-30.09-82.434-30.09-9.574 0-16.892 1.887-21.951 5.656-5.061 3.77-7.589 8.714-7.589 14.829 0 7.115 3.382 12.627 10.152 16.538 6.768 3.913 20.342 8.29 40.721 13.123 18.053 4.128 33.403 8.641 46.049 13.549 12.646 4.906 24.023 11.062 34.126 18.457 10.106 7.397 17.629 16.399 22.578 26.994 4.949 10.599 7.425 23.012 7.425 37.234 0 30.87-10.843 55.194-32.532 72.976zm36.025-580.685h-88.65v231.519h-81.656V832.775h-88.442v-74.471h258.748v74.471z"/></symbol><symbol id="down" viewBox="0 0 51.566 16.376" xmlns="http://www.w3.org/2000/svg"><style>.bst0{fill:#141515}</style><path class="bst0" d="M25.668 16.376a1 1 0 0 1-.501-1.866L50.066.134a1 1 0 1 1 1 1.732L26.167 16.242a.997.997 0 0 1-.499.134z"/><path class="bst0" d="M25.898 16.376a.997.997 0 0 1-.499-.134L.5 1.867a1 1 0 0 1 1-1.733l24.899 14.375a1 1 0 0 1-.501 1.867z"/></symbol><symbol id="icg" viewBox="0 0 567.797 301.807" xmlns="http://www.w3.org/2000/svg"><style>.cst0{fill:#fff}</style><path class="cst0" d="M66.794 247.568h25.69v16.828c-5.469 3.869-12.381 5.803-20.732 5.803-10.217 0-18.614-3.557-25.194-10.674-6.58-7.113-9.87-16.143-9.87-27.084 0-10.26 3.184-18.922 9.555-25.988 6.369-7.066 14.211-10.6 23.526-10.6 6.121 0 11.641 1.029 16.563 3.086 4.919 2.059 9.78 5.176 14.581 9.352l20.982-26.15c-7.19-6.494-14.979-11.41-23.368-14.752s-18.033-5.014-28.938-5.014c-9.856 0-19.096 1.805-27.719 5.412-8.624 3.607-16 8.506-22.13 14.695-6.129 6.189-10.952 13.561-14.467 22.115C1.758 213.15 0 222.248 0 231.889c0 13.436 3.049 25.494 9.149 36.178 6.099 10.686 14.497 18.98 25.194 24.885 10.695 5.904 22.685 8.855 35.966 8.855 21.144 0 39.803-6.838 55.978-20.518v-60.561H66.794v26.84zm103.257-122.523c4.897-4.182 9.539-9.346 13.927-15.494L157.025 89.49c-4.326 5.488-8.698 9.602-13.115 12.346s-9.78 4.117-16.09 4.117c-8.955 0-16.331-3.469-22.13-10.406-5.8-6.939-8.698-15.549-8.698-25.832 0-10.217 2.898-18.813 8.698-25.783 5.799-6.969 13.175-10.453 22.13-10.453 10.997 0 20.491 5.234 28.484 15.705l26.23-21.162C169.375 9.34 151.286 0 128.271 0c-9.615 0-18.652 1.809-27.111 5.428-8.46 3.617-15.666 8.531-21.615 14.738-5.95 6.207-10.645 13.602-14.083 22.178-3.439 8.578-5.157 17.701-5.157 27.371 0 13.209 2.959 25.156 8.88 35.84 5.92 10.686 13.942 19.002 24.067 24.951 10.124 5.951 21.286 8.926 33.486 8.926 9.134 0 17.411-1.354 24.834-4.059 7.421-2.705 13.58-6.146 18.479-10.328zm101.182 68.098c-6.972 0-13.115 1.441-18.434 4.324-5.318 2.885-10.291 7.115-14.918 12.691-2.646-5.453-6.461-9.652-11.448-12.598-4.988-2.945-10.787-4.418-17.397-4.418-11.453 0-21.368 5.545-29.746 16.639V195.48h-35.064v103.615h35.064v-56.154c0-5.471 1.296-9.701 3.889-12.686 2.592-2.984 6.028-4.477 10.31-4.477 4.22 0 7.565 1.477 10.037 4.432s3.708 7.197 3.708 12.73v56.154h35.065V242.94c0-5.471 1.336-9.701 4.011-12.686 2.674-2.984 6.144-4.477 10.411-4.477 4.206 0 7.527 1.477 9.961 4.432s3.65 7.197 3.65 12.73v56.154h35.065v-67.986c0-12.031-3.021-21.369-9.06-28.008-6.038-6.638-14.407-9.956-25.104-9.956zM40.924 2.617H5.138v134.102h35.786V2.617zm491.088 162.377v50.498h-45.973v-50.498h-35.785v134.102h35.785v-50.967h45.973v50.967h35.785V164.994h-35.785zM261.858 85.191h25.69v16.828c-5.469 3.871-12.381 5.803-20.732 5.803-10.217 0-18.614-3.557-25.194-10.672s-9.87-16.143-9.87-27.084c0-10.262 3.184-18.924 9.555-25.988 6.369-7.066 14.211-10.6 23.526-10.6 6.121 0 11.641 1.027 16.563 3.086 4.919 2.057 9.78 5.176 14.581 9.352l20.982-26.152c-7.19-6.492-14.979-11.41-23.368-14.752S275.558 0 264.653 0c-9.856 0-19.096 1.803-27.719 5.412-8.624 3.607-16 8.504-22.13 14.695-6.129 6.189-10.952 13.561-14.467 22.113-3.516 8.555-5.273 17.652-5.273 27.293 0 13.434 3.049 25.492 9.149 36.178 6.099 10.684 14.497 18.979 25.194 24.883 10.695 5.906 22.685 8.857 35.966 8.857 21.144 0 39.803-6.838 55.978-20.518V58.354h-59.493v26.837zm157.884 122.352c-4.071-4.551-8.771-8.088-14.102-10.613-5.329-2.525-10.959-3.787-16.886-3.787-6.866 0-12.618 1.418-17.255 4.254-4.638 2.838-8.975 6.779-13.01 11.83v-49.938h-35.064v139.807h35.064v-12.625c3.794 4.615 8.085 8.262 12.873 10.941 4.789 2.68 10.646 4.021 17.573 4.021 5.868 0 11.465-1.264 16.795-3.787 5.329-2.525 10.014-6.08 14.056-10.662 4.043-4.582 7.245-10.316 9.611-17.207 2.365-6.887 3.548-14.416 3.548-22.584 0-8.166-1.183-15.678-3.548-22.537-2.365-6.857-5.583-12.56-9.655-17.113zm-27.013 56.764c-3.915 4.428-8.793 6.641-14.635 6.641-5.722 0-10.556-2.229-14.499-6.688-3.945-4.455-5.917-10.082-5.917-16.879 0-6.92 1.972-12.609 5.917-17.066 3.943-4.457 8.777-6.686 14.499-6.686 5.781 0 10.645 2.213 14.59 6.639 3.945 4.428 5.918 10.006 5.918 16.74.001 7.105-1.956 12.873-5.873 17.299z"/></symbol><symbol id="logo" viewBox="0 0 617.757 361" xmlns="http://www.w3.org/2000/svg"><style>.dst0{fill:#1d1d1b}</style><path class="dst0" d="M404.542 146.031v-29.997h3.264v29.997h-3.264zm11.194 0v-22.154h3.181v3.856c1.679-2.885 4.116-4.328 7.312-4.328 2.533 0 4.529.808 5.988 2.421 1.459 1.614 2.189 3.764 2.189 6.449v13.755h-3.18v-12.94c0-2.085-.518-3.721-1.55-4.906s-2.485-1.779-4.357-1.779c-1.845 0-3.374.643-4.585 1.929-1.212 1.286-1.817 2.957-1.817 5.014v12.684h-3.181zm32.59.386c-1.845 0-3.311-.507-4.398-1.521-1.088-1.014-1.632-2.592-1.632-4.735v-13.37h-2.974v-2.914h2.974v-6.685h3.181v6.685h6.773v2.914h-6.773v12.941c0 2.458 1.197 3.686 3.594 3.686 1.046 0 2.078-.257 3.098-.771v2.828c-1.158.627-2.439.942-3.843.942zm11.441-10.113c.221 2.257 1.039 4.05 2.458 5.378 1.418 1.329 3.104 1.993 5.06 1.993 2.561 0 4.805-1.042 6.732-3.128l1.983 1.842c-2.396 2.771-5.329 4.157-8.798 4.157-3.002 0-5.529-1.078-7.58-3.235-2.052-2.157-3.077-4.935-3.077-8.334 0-3.228.978-5.963 2.933-8.207 1.955-2.242 4.393-3.364 7.311-3.364 3.057 0 5.48 1.114 7.271 3.343 1.79 2.228 2.685 5.028 2.685 8.399 0 .428-.014.814-.041 1.157h-16.937zm0-2.657h13.755c-.192-2.143-.874-3.921-2.044-5.335-1.172-1.414-2.762-2.121-4.771-2.121-1.817 0-3.373.7-4.668 2.1-1.295 1.399-2.051 3.185-2.272 5.356zm22.842 12.384v-31.282h3.181v31.282h-3.181zm10.863 0v-31.282h3.18v31.282h-3.18zm10.656-26.996v-3.643h3.635v3.643h-3.635zm.206 26.996v-22.154h3.181v22.154h-3.181zm20.033 6.942c-3.607 0-6.843-1.028-9.707-3.085l1.446-2.571c2.505 1.885 5.246 2.828 8.22 2.828 2.396 0 4.289-.679 5.68-2.036s2.086-3.306 2.086-5.849v-2.614c-2.258 3.114-5.053 4.671-8.385 4.671-2.699 0-5.047-.964-7.043-2.893-1.996-1.929-2.994-4.449-2.994-7.563s1.004-5.635 3.016-7.563c2.01-1.928 4.35-2.893 7.021-2.893 3.414 0 6.195 1.486 8.344 4.457v-3.985h3.18v18.298c0 3.342-.908 5.956-2.726 7.842-1.9 1.971-4.613 2.956-8.138 2.956zm-.041-11.57c2.093 0 3.924-.714 5.494-2.143 1.569-1.428 2.354-3.242 2.354-5.442 0-2.199-.777-3.999-2.333-5.399-1.556-1.399-3.395-2.1-5.515-2.1-2.093 0-3.848.693-5.266 2.078-1.42 1.386-2.128 3.208-2.128 5.464 0 2.171.724 3.971 2.169 5.399 1.445 1.429 3.186 2.143 5.225 2.143zm19.908-5.099c.221 2.257 1.039 4.05 2.459 5.378 1.418 1.329 3.104 1.993 5.059 1.993 2.562 0 4.806-1.042 6.733-3.128l1.983 1.842c-2.396 2.771-5.329 4.157-8.799 4.157-3.002 0-5.528-1.078-7.58-3.235-2.051-2.157-3.076-4.935-3.076-8.334 0-3.228.977-5.963 2.932-8.207 1.955-2.242 4.393-3.364 7.312-3.364 3.057 0 5.479 1.114 7.271 3.343 1.789 2.228 2.684 5.028 2.684 8.399 0 .428-.014.814-.041 1.157h-16.937zm0-2.657h13.756c-.193-2.143-.875-3.921-2.045-5.335-1.171-1.414-2.762-2.121-4.771-2.121-1.816 0-3.373.7-4.667 2.1-1.295 1.399-2.053 3.185-2.273 5.356zm22.552 12.384v-22.154h3.182v3.856c1.679-2.885 4.115-4.328 7.311-4.328 2.533 0 4.529.808 5.989 2.421 1.459 1.614 2.188 3.764 2.188 6.449v13.755h-3.18v-12.94c0-2.085-.517-3.721-1.549-4.906-1.033-1.186-2.486-1.779-4.357-1.779-1.846 0-3.374.643-4.586 1.929-1.211 1.286-1.816 2.957-1.816 5.014v12.684h-3.182zm32.59.386c-1.845 0-3.311-.507-4.398-1.521-1.088-1.014-1.632-2.592-1.632-4.735v-13.37h-2.974v-2.914h2.974v-6.685h3.181v6.685h6.773v2.914h-6.773v12.941c0 2.458 1.197 3.686 3.594 3.686 1.046 0 2.078-.257 3.098-.771v2.828c-1.157.627-2.438.942-3.843.942zm-181.904 47.925c-4.158 0-7.615-1.492-10.368-4.479-2.754-2.984-4.131-6.663-4.131-11.033 0-4.314 1.39-7.979 4.172-10.992 2.781-3.014 6.265-4.521 10.45-4.521 2.423 0 4.488.407 6.196 1.221 1.707.814 3.372 2.021 4.997 3.621l-2.146 2.399c-2.782-2.742-5.811-4.113-9.088-4.113-3.195 0-5.859 1.186-7.992 3.557-2.135 2.371-3.201 5.313-3.201 8.828 0 3.484 1.073 6.42 3.221 8.806 2.148 2.386 4.806 3.578 7.973 3.578 1.872 0 3.524-.356 4.957-1.071 1.432-.714 2.891-1.8 4.378-3.257l2.147 2.356c-1.625 1.686-3.332 2.957-5.121 3.814-1.792.858-3.939 1.286-6.444 1.286zm23.088-.043c-2.175 0-4.047-.613-5.617-1.842-1.569-1.229-2.354-2.943-2.354-5.143 0-2.314.826-4.1 2.479-5.357 1.651-1.256 3.867-1.885 6.649-1.885 2.202 0 4.378.314 6.526.942v-.686c0-1.942-.551-3.429-1.652-4.456-1.102-1.029-2.658-1.543-4.668-1.543-2.092 0-4.254.529-6.484 1.586l-.95-2.7c2.644-1.257 5.231-1.886 7.766-1.886 3.028 0 5.328.814 6.897 2.443 1.487 1.542 2.23 3.713 2.23 6.514v13.541h-3.139v-3.301c-1.9 2.517-4.46 3.773-7.683 3.773zm.62-2.656c1.983 0 3.662-.558 5.04-1.672 1.376-1.113 2.064-2.542 2.064-4.285v-2.057c-2.093-.628-4.172-.943-6.236-.943-1.956 0-3.484.408-4.586 1.222-1.102.814-1.652 1.922-1.652 3.321 0 1.344.518 2.414 1.549 3.214 1.033.799 2.306 1.2 3.821 1.2zm28.294 2.656c-3.359 0-6.086-1.57-8.178-4.713v4.242h-3.181v-31.283h3.181v13.584c2.148-3.285 4.874-4.929 8.178-4.929 2.727 0 5.108 1.051 7.146 3.15 2.037 2.1 3.057 4.906 3.057 8.42 0 3.457-1.02 6.242-3.057 8.356-2.038 2.116-4.419 3.173-7.146 3.173zm-.578-2.957c2.148 0 3.938-.777 5.37-2.335 1.432-1.557 2.147-3.649 2.147-6.278 0-2.542-.729-4.605-2.188-6.191-1.46-1.586-3.236-2.379-5.329-2.379-2.064 0-3.869.814-5.41 2.443-1.543 1.628-2.313 3.686-2.313 6.17 0 2.486.771 4.536 2.313 6.149 1.541 1.614 3.345 2.421 5.41 2.421zm16.935 2.486v-31.283h3.18v31.283h-3.18zm12.473-9.728c.221 2.258 1.039 4.051 2.459 5.379 1.418 1.328 3.104 1.992 5.059 1.992 2.562 0 4.806-1.043 6.733-3.128l1.983 1.843c-2.396 2.771-5.329 4.156-8.799 4.156-3.002 0-5.528-1.078-7.58-3.235-2.051-2.157-3.076-4.935-3.076-8.335 0-3.228.977-5.963 2.932-8.206 1.955-2.242 4.393-3.364 7.312-3.364 3.057 0 5.479 1.115 7.271 3.344 1.789 2.228 2.684 5.027 2.684 8.398 0 .428-.014.814-.041 1.156h-16.937zm0-2.657h13.756c-.193-2.143-.875-3.921-2.045-5.335-1.171-1.414-2.762-2.121-4.771-2.121-1.816 0-3.373.7-4.667 2.1s-2.052 3.185-2.273 5.356zm-80.626 60.696c-4.435 0-7.993-1.479-10.678-4.436s-4.027-6.648-4.027-11.076c0-4.229 1.363-7.871 4.089-10.928 2.727-3.057 6.196-4.586 10.41-4.586 2.313 0 4.302.329 5.969.986 1.665.657 3.27 1.657 4.812 3l-2.106 2.57c-2.534-2.285-5.467-3.428-8.799-3.428-3.166 0-5.789 1.207-7.868 3.621s-3.118 5.335-3.118 8.764c0 3.628 1.039 6.613 3.118 8.955 2.079 2.344 4.854 3.514 8.323 3.514 3.193 0 5.975-.999 8.344-2.999v-7.456h-8.799v-3.043h11.938v11.956c-3.306 3.058-7.175 4.586-11.608 4.586zm18.422-.514v-22.154h3.181v5.784c.826-1.913 1.996-3.442 3.511-4.585s3.249-1.672 5.204-1.586v3.557h-.248c-2.451 0-4.475.887-6.071 2.657-1.597 1.771-2.396 4.271-2.396 7.499v8.828H436.1zm34.449-2.893c-2.147 2.271-4.806 3.406-7.972 3.406-3.168 0-5.804-1.128-7.91-3.385-2.107-2.257-3.16-4.985-3.16-8.186 0-3.171 1.066-5.892 3.201-8.163 2.134-2.271 4.784-3.407 7.951-3.407 3.166 0 5.811 1.129 7.931 3.386s3.181 4.985 3.181 8.185c0 3.172-1.074 5.893-3.222 8.164zm-7.89.45c2.285 0 4.165-.828 5.639-2.485 1.473-1.656 2.209-3.699 2.209-6.128 0-2.399-.764-4.441-2.292-6.127s-3.407-2.529-5.638-2.529c-2.287 0-4.158.836-5.618 2.508-1.46 1.671-2.188 3.721-2.188 6.148 0 2.4.756 4.436 2.271 6.107 1.514 1.67 3.387 2.506 5.617 2.506zm24.702 2.914c-2.534 0-4.531-.807-5.99-2.421s-2.189-3.764-2.189-6.449v-13.755h3.182v12.94c0 2.086.516 3.722 1.549 4.907 1.032 1.186 2.484 1.777 4.357 1.777 1.845 0 3.373-.643 4.585-1.928s1.817-2.957 1.817-5.014v-12.684h3.139v22.154h-3.139v-3.857c-1.735 2.888-4.173 4.33-7.311 4.33zm17.595 6.384v-29.01h3.18v4.456c2.148-3.285 4.875-4.929 8.179-4.929 2.727 0 5.108 1.051 7.146 3.15 2.038 2.1 3.057 4.906 3.057 8.42 0 3.457-1.019 6.242-3.057 8.356-2.037 2.114-4.419 3.171-7.146 3.171-3.36 0-6.086-1.57-8.179-4.713v11.098h-3.18zm10.781-9.341c2.147 0 3.938-.777 5.37-2.335 1.432-1.557 2.147-3.649 2.147-6.278 0-2.542-.729-4.605-2.188-6.191-1.461-1.586-3.236-2.379-5.329-2.379-2.065 0-3.869.814-5.411 2.443-1.543 1.628-2.313 3.686-2.313 6.17 0 2.486.77 4.536 2.313 6.149 1.541 1.614 3.345 2.421 5.411 2.421z"/><path d="M359.491 241.341c-5.386 5.625-11.348 10.417-18 14.374-6.652 3.962-13.821 7.05-21.501 9.266-7.684 2.216-15.642 3.326-23.876 3.326-7.525 0-14.771-.897-21.737-2.691a82.583 82.583 0 0 1-12.237-4.198c-10.615-4.593-19.92-10.889-27.917-18.888-7.999-7.995-14.295-17.302-18.888-27.915-4.595-10.611-6.889-22.014-6.889-34.213 0-12.033 2.294-23.361 6.889-33.974 4.593-10.608 10.888-19.915 18.887-27.915 7.997-7.997 17.3-14.358 27.915-18.953 10.609-4.593 21.93-6.956 33.97-6.956h.007a84.49 84.49 0 0 1 23.756 3.391c7.604 2.22 14.69 5.301 21.264 9.181 6.57 3.883 12.495 8.568 17.881 14.034.694.704 1.2 1.435 1.985 2.159V0H0v95.743h35.315v169.513H0V361h361V239.651c-.785.568-.977 1.134-1.509 1.69zm-164.349-2.614a85.67 85.67 0 0 1-17.582 14.493c-6.496 4.038-13.582 7.169-21.262 9.385-7.684 2.22-15.644 3.326-23.878 3.326-11.877 0-23.044-2.257-33.498-6.772-10.454-4.514-19.563-10.65-27.321-18.412-7.762-7.758-13.898-16.869-18.412-27.321-4.514-10.454-6.772-21.621-6.772-33.5 0-11.719 2.257-22.807 6.772-33.261 4.514-10.452 10.65-19.6 18.412-27.439 7.758-7.841 16.867-14.017 27.321-18.531 10.454-4.515 21.621-6.772 33.498-6.772 8.079 0 15.838 1.069 23.283 3.207 7.443 2.14 14.373 5.149 20.789 9.029a84.275 84.275 0 0 1 17.343 13.898 88.3 88.3 0 0 1 13.187 17.819 890.609 890.609 0 0 0-8.792 4.634 278.131 278.131 0 0 1-6.413 3.326 9200.314 9200.314 0 0 1-6.891 3.444 660.129 660.129 0 0 1-9.739 4.751c-4.121-7.283-9.978-13.185-17.582-17.699-7.602-4.512-15.998-6.77-25.184-6.77-6.971 0-13.504 1.347-19.6 4.038-6.098 2.694-11.445 6.296-16.035 10.81-4.597 4.513-8.197 9.859-10.81 16.036-2.614 6.176-3.919 12.674-3.919 19.481 0 6.971 1.306 13.506 3.919 19.6 2.613 6.1 6.214 11.445 10.81 16.037 4.591 4.595 9.937 8.197 16.035 10.81 6.096 2.614 12.629 3.919 19.6 3.919 9.505 0 18.175-2.411 26.016-7.245 7.841-4.83 13.898-11.204 18.175-19.127 3.956 2.062 7.165 3.724 9.622 4.99a502.1 502.1 0 0 1 6.77 3.563 222.77 222.77 0 0 0 6.415 3.326c2.216 1.11 5.227 2.535 9.029 4.278a88.82 88.82 0 0 1-13.306 18.649z"/><path d="M350.044 149.042c-2.535 1.268-5.861 2.933-9.978 4.988-4.436-7.441-10.536-13.459-18.295-18.056-7.762-4.591-16.313-6.889-25.657-6.889-7.128 0-13.821 1.347-20.076 4.039-6.259 2.696-11.682 6.337-16.274 10.928a50.146 50.146 0 0 0-6.178 7.515 53.73 53.73 0 0 0-4.749 8.759c-2.696 6.259-4.039 12.948-4.039 20.076s1.343 13.821 4.039 20.076c2.69 6.259 6.333 11.723 10.928 16.392 4.593 4.675 10.015 8.316 16.274 10.93 6.254 2.613 12.948 3.919 20.075 3.919 9.502 0 18.21-2.517 26.13-7.269 5.671-3.404 10.471-7.065 14.435-12.558h-40.815v-32.176H361v-36.168c-1.57.727-2.682 1.414-4.003 2.049-2.138 1.031-4.422 2.178-6.953 3.445z"/></symbol><symbol id="marker" viewBox="0 0 90.527 148.149" xmlns="http://www.w3.org/2000/svg"><style>.est0{fill:#fff}</style><path class="est0" d="M45.268 0C20.272 0 0 20.181 0 45.07c0 5.63 1.086 10.996 2.963 15.967l.066.165c1.054 2.716 11.786 25.449 13.317 27.885l28.922 59.062 28.922-59.07c1.539-2.436 12.263-25.185 13.317-27.885l.082-.165h-.025c1.877-4.963 2.963-10.329 2.963-15.967C90.535 20.189 70.264 0 45.268 0zm0 67.572c-11.835 0-21.432-9.712-21.432-21.729 0-11.984 9.597-21.679 21.432-21.679S66.7 33.86 66.7 45.844c0 12.016-9.597 21.728-21.432 21.728z"/></symbol><symbol id="yep" viewBox="0 0 31.073 31.983" xmlns="http://www.w3.org/2000/svg"><style>.fst0{opacity:.4}</style><g class="fst0"><path d="M26.16 31.983a7.99 7.99 0 0 1-5.173-1.893 15.465 15.465 0 0 1-5.451.983C6.97 31.074 0 24.104 0 15.538 0 6.971 6.97 0 15.536 0c8.567 0 15.537 6.971 15.537 15.538 0 4.233-1.673 8.189-4.71 11.142-1.127 1.262-1.071 3.228.15 4.45a.499.499 0 1 1-.353.853zm-5.07-2.968a.5.5 0 0 1 .338.131 6.984 6.984 0 0 0 3.672 1.758 4.26 4.26 0 0 1 .542-4.915c2.866-2.787 4.432-6.49 4.432-10.45C30.073 7.521 23.552 1 15.536 1S1 7.521 1 15.538c0 8.016 6.521 14.536 14.536 14.536 1.856 0 3.663-.345 5.369-1.024a.494.494 0 0 1 .185-.035z"/><path d="M11.451 12.536L8.292 19.96c-.32.805-.717 1.373-1.189 1.702s-1.042.494-1.709.494a3.57 3.57 0 0 1-1.079-.169 2.379 2.379 0 0 1-.871-.469l.741-1.442c.155.139.335.247.539.325s.405.117.604.117c.277 0 .503-.067.676-.201.174-.135.33-.357.469-.67l.025-.065-3.028-7.046h2.093l1.963 4.745 1.976-4.745h1.949zm6.799 4.069h-5.291c.096.433.32.775.676 1.026.355.252.798.377 1.326.377.364 0 .687-.054.969-.162.281-.108.544-.279.786-.514l1.079 1.17c-.659.754-1.621 1.131-2.886 1.131-.789 0-1.486-.153-2.093-.461a3.376 3.376 0 0 1-1.404-1.281c-.33-.545-.494-1.165-.494-1.858 0-.685.162-1.302.487-1.853s.771-.979 1.339-1.287a3.939 3.939 0 0 1 1.905-.461c.684 0 1.304.146 1.858.441s.99.717 1.307 1.268.475 1.189.475 1.918a22 22 0 0 1-.039.546zm-4.745-2.249c-.312.26-.503.615-.572 1.066h3.445c-.069-.442-.26-.795-.572-1.061-.312-.264-.693-.396-1.144-.396-.46.001-.845.132-1.157.391zm11.394-1.475c.533.299.951.72 1.254 1.261.304.542.455 1.172.455 1.892s-.151 1.351-.455 1.892a3.221 3.221 0 0 1-1.254 1.261c-.533.3-1.125.448-1.774.448-.893 0-1.595-.281-2.106-.845v3.263H18.99v-9.516h1.938v.807c.503-.607 1.235-.91 2.197-.91a3.543 3.543 0 0 1 1.774.447zm-.845 4.563c.334-.352.501-.822.501-1.411s-.167-1.06-.501-1.411c-.333-.35-.76-.525-1.28-.525s-.946.176-1.28.525c-.334.352-.5.822-.5 1.411s.166 1.06.5 1.411c.334.351.761.525 1.28.525.52.001.947-.174 1.28-.525zm3.315 1.846c-.238-.23-.357-.51-.357-.839s.117-.604.352-.825c.233-.221.533-.332.896-.332.364 0 .663.111.897.332.233.221.351.496.351.825s-.119.608-.357.839c-.238.229-.535.344-.891.344s-.653-.114-.891-.344zm-.318-8.859h2.418l-.402 5.94h-1.612l-.404-5.94z"/></g></symbol></svg>