<?xml version="1.0" encoding="utf-8"?>
<!-- Generator: Adobe Illustrator 21.1.0, SVG Export Plug-In . SVG Version: 6.00 Build 0)  -->
<svg version="1.1" id="Слой_1" xmlns="http://www.w3.org/2000/svg" xmlns:xlink="http://www.w3.org/1999/xlink" x="0px" y="0px"
	 viewBox="0 0 31.073 31.983" style="enable-background:new 0 0 31.073 31.983;" xml:space="preserve">
<style type="text/css">
	.st0{opacity:0.4;}
</style>
<g class="st0">
	<g>
		<path d="M26.16,31.983c-1.903,0-3.728-0.67-5.173-1.893c-1.739,0.652-3.571,0.983-5.451,0.983C6.97,31.074,0,24.104,0,15.538
			C0,6.971,6.97,0,15.536,0c8.567,0,15.537,6.971,15.537,15.538c0,4.233-1.673,8.189-4.71,11.142
			c-1.127,1.262-1.071,3.228,0.15,4.45c0.144,0.144,0.186,0.358,0.108,0.545S26.362,31.983,26.16,31.983z M21.09,29.015
			c0.123,0,0.244,0.045,0.338,0.131c1.031,0.944,2.308,1.551,3.672,1.758c-0.866-1.55-0.695-3.532,0.542-4.915
			c2.866-2.787,4.432-6.49,4.432-10.45C30.073,7.521,23.552,1,15.536,1S1,7.521,1,15.538c0,8.016,6.521,14.536,14.536,14.536
			c1.856,0,3.663-0.345,5.369-1.024C20.965,29.026,21.027,29.015,21.09,29.015z"/>
	</g>
	<g>
		<path d="M11.451,12.536L8.292,19.96c-0.32,0.805-0.717,1.373-1.189,1.702s-1.042,0.494-1.709,0.494
			c-0.364,0-0.724-0.057-1.079-0.169c-0.355-0.113-0.646-0.269-0.871-0.469l0.741-1.442c0.155,0.139,0.335,0.247,0.539,0.325
			s0.405,0.117,0.604,0.117c0.277,0,0.503-0.067,0.676-0.201c0.174-0.135,0.33-0.357,0.469-0.67l0.025-0.065L3.47,12.536h2.093
			l1.963,4.745l1.976-4.745H11.451z"/>
		<path d="M18.25,16.605h-5.291c0.096,0.433,0.32,0.775,0.676,1.026c0.355,0.252,0.798,0.377,1.326,0.377
			c0.364,0,0.687-0.054,0.969-0.162c0.281-0.108,0.544-0.279,0.786-0.514l1.079,1.17c-0.659,0.754-1.621,1.131-2.886,1.131
			c-0.789,0-1.486-0.153-2.093-0.461c-0.607-0.308-1.075-0.734-1.404-1.281c-0.33-0.545-0.494-1.165-0.494-1.858
			c0-0.685,0.162-1.302,0.487-1.853s0.771-0.979,1.339-1.287c0.567-0.307,1.203-0.461,1.905-0.461c0.684,0,1.304,0.146,1.858,0.441
			s0.99,0.717,1.307,1.268s0.475,1.189,0.475,1.918C18.289,16.085,18.276,16.267,18.25,16.605z M13.505,14.356
			c-0.312,0.26-0.503,0.615-0.572,1.066h3.445c-0.069-0.442-0.26-0.795-0.572-1.061c-0.312-0.264-0.693-0.396-1.144-0.396
			C14.202,13.966,13.817,14.097,13.505,14.356z"/>
		<path d="M24.899,12.881c0.533,0.299,0.951,0.72,1.254,1.261c0.304,0.542,0.455,1.172,0.455,1.892s-0.151,1.351-0.455,1.892
			c-0.303,0.541-0.721,0.962-1.254,1.261c-0.533,0.3-1.125,0.448-1.774,0.448c-0.893,0-1.595-0.281-2.106-0.845v3.263H18.99v-9.516
			h1.938v0.807c0.503-0.607,1.235-0.91,2.197-0.91C23.774,12.433,24.366,12.581,24.899,12.881z M24.054,17.444
			c0.334-0.352,0.501-0.822,0.501-1.411s-0.167-1.06-0.501-1.411c-0.333-0.35-0.76-0.525-1.28-0.525c-0.52,0-0.946,0.176-1.28,0.525
			c-0.334,0.352-0.5,0.822-0.5,1.411s0.166,1.06,0.5,1.411c0.334,0.351,0.761,0.525,1.28,0.525
			C23.294,17.97,23.721,17.795,24.054,17.444z"/>
		<path d="M27.369,19.29c-0.238-0.23-0.357-0.51-0.357-0.839s0.117-0.604,0.352-0.825c0.233-0.221,0.533-0.332,0.896-0.332
			c0.364,0,0.663,0.111,0.897,0.332c0.233,0.221,0.351,0.496,0.351,0.825s-0.119,0.608-0.357,0.839
			c-0.238,0.229-0.535,0.344-0.891,0.344S27.607,19.52,27.369,19.29z M27.051,10.431h2.418l-0.402,5.94h-1.612L27.051,10.431z"/>
	</g>
</g>
</svg>
