<?xml version="1.0" encoding="utf-8"?>
<!-- Generator: Adobe Illustrator 21.1.0, SVG Export Plug-In . SVG Version: 6.00 Build 0)  -->
<svg version="1.1" id="Слой_1" xmlns="http://www.w3.org/2000/svg" xmlns:xlink="http://www.w3.org/1999/xlink" x="0px" y="0px"
	 viewBox="0 0 2621.585 2124" style="enable-background:new 0 0 2621.585 2124;" xml:space="preserve">
<style type="text/css">
	.st0{fill:#FFFFFF;}
</style>
<g>
	<path class="st0" d="M1272.504,828.72c-21.802,0-39.694,8.016-53.681,24.039c-13.987,16.023-20.979,35.575-20.979,58.646
		c0,22.649,7.128,42.092,21.389,58.329c14.261,16.237,32.292,24.356,54.094,24.356c22.076,0,40.109-8.014,54.094-24.036
		c13.987-16.023,20.979-35.575,20.979-58.649c0-22.644-7.131-42.09-21.39-58.327C1312.748,836.843,1294.58,828.72,1272.504,828.72z"
		/>
	<path class="st0" d="M954.402,879.718c25.718,0,38.58-9.28,38.58-27.851c0-8.493-3.149-15.042-9.442-19.648
		s-15.457-6.909-27.498-6.909h-52.944v54.409h0.002H954.402z"/>
	<path class="st0" d="M995.267,947.181c-6.704-5.002-16.693-7.502-29.969-7.502h-62.197v57.613h63.018
		c12.452,0,22.099-2.533,28.942-7.608c6.841-5.075,10.263-12.395,10.263-21.958C1005.325,959.028,1001.971,952.181,995.267,947.181z
		"/>
	<polygon class="st0" points="595.605,943.731 661.834,943.731 628.924,856.674 	"/>
	<path class="st0" d="M0,0v2124h2621.585V0H0z M706.879,1064.296l-21.597-54.626h-113.74l-20.979,54.626h-85.978v-0.002
		l125.672-308.123h78.776l125.464,308.125H706.879z M1057.443,1042.09c-19.694,14.804-47.105,22.202-82.233,22.202H823.09v0.002
		l0-0.002h0V758.304h151.175c35.924,0,62.733,9.038,80.422,27.112c12.753,13.034,19.13,29.567,19.13,49.606
		c0,32.089-15.176,55.039-45.524,68.851c19.08,6.64,33.631,15.993,43.653,28.05c10.022,12.059,15.035,28.34,15.035,48.844
		C1086.981,1006.848,1077.135,1027.288,1057.443,1042.09z M1419.086,973.249c-8.135,19.619-19.181,36.536-33.134,50.751
		c-13.953,14.215-30.772,25.517-50.466,33.905c-19.694,8.386-40.689,12.579-62.982,12.579c-29.757,0-56.769-7.073-81.04-21.216
		c-24.271-14.142-43.226-33.337-56.871-57.574c-13.645-24.242-20.463-51.002-20.463-80.289l0,0l0,0l0,0
		c0-21.638,4.078-42.243,12.237-61.813c8.157-19.571,19.233-36.474,33.218-50.713c13.987-14.236,30.852-25.551,50.599-33.951
		c19.746-8.399,40.794-12.598,63.144-12.598c22.35,0,43.331,4.162,62.943,12.493c19.612,8.331,36.356,19.575,50.229,33.739
		c13.871,14.163,24.803,31.035,32.801,50.605c7.995,19.571,11.993,40.319,11.993,62.24
		C1431.293,933.016,1427.225,953.63,1419.086,973.249z M1470.371,930.077V758.304h82.89v170.219
		c0,21.501,4.799,37.734,14.398,48.698c9.595,10.964,22.898,16.443,39.901,16.443c16.999,0,30.302-5.269,39.902-15.804
		c9.595-10.535,14.398-26.27,14.398-47.201V758.304h82.89v169.637c0,24.326-3.22,45.592-9.654,63.803
		c-6.432,18.209-15.742,33.004-27.929,44.383c-12.187,11.382-26.667,19.881-43.438,25.499c-16.771,5.618-35.769,8.429-56.99,8.429
		c-43.194,0-76.72-11.63-100.579-34.888C1482.303,1011.909,1470.371,976.881,1470.371,930.077L1470.371,930.077z M1748.042,1298.451
		c0,24.326-3.22,45.592-9.654,63.803c-6.432,18.209-15.742,33.004-27.929,44.383c-12.187,11.382-26.667,19.881-43.438,25.499
		c-16.771,5.618-35.769,8.429-56.99,8.429c-43.194,0-76.72-11.63-100.579-34.889s-35.79-58.288-35.79-105.092v-171.773h82.89
		v170.221c0,21.501,4.799,37.734,14.398,48.698c9.595,10.964,22.898,16.443,39.902,16.443c16.999,0,30.302-5.269,39.901-15.804
		c9.595-10.535,14.398-26.27,14.398-47.201v-172.357h82.891V1298.451z M1999.56,1413.46c-21.686,17.784-50.642,26.672-86.874,26.672
		c-26.642,0-51.908-4.306-75.794-12.908c-23.89-8.602-44.746-21.23-62.571-37.873h0l45.661-56.333
		c29.522,24.47,61.448,36.703,95.778,36.703c10.804,0,19.078-1.882,24.824-5.656c5.746-3.765,8.616-9.207,8.616-16.322
		c0-6.542-3.386-11.877-10.154-16.005c-6.77-4.125-19.865-8.536-39.283-13.23c-9.985-2.419-18.66-4.659-26.024-6.722
		c-7.368-2.058-15.176-4.657-23.436-7.788c-8.26-3.126-15.281-6.403-21.063-9.816c-5.78-3.413-11.425-7.539-16.931-12.376
		c-5.508-4.835-9.912-10.063-13.214-15.683c-3.304-5.62-5.955-12.198-7.95-19.737c-1.997-7.539-2.994-15.792-2.994-24.753
		c0-28.878,10.346-52.422,31.041-70.63c20.696-18.206,48.508-27.313,83.438-27.313c48.429,0,88.898,13.515,121.416,40.543
		l-41.031,59.961c-27.548-20.059-55.028-30.09-82.434-30.09c-9.574,0-16.892,1.887-21.951,5.656
		c-5.061,3.77-7.589,8.714-7.589,14.829c0,7.115,3.382,12.627,10.152,16.538c6.768,3.913,20.342,8.29,40.721,13.123
		c18.053,4.128,33.403,8.641,46.049,13.549c12.646,4.906,24.023,11.062,34.126,18.457c10.106,7.397,17.629,16.399,22.578,26.994
		c4.949,10.599,7.425,23.012,7.425,37.234C2032.092,1371.354,2021.249,1395.678,1999.56,1413.46z M2035.585,832.775h-88.65v231.519
		h-81.656V832.775h-88.442v-74.471h258.748V832.775z"/>
</g>
</svg>
