<?xml version="1.0" encoding="utf-8"?>
<!-- Generator: Adobe Illustrator 21.1.0, SVG Export Plug-In . SVG Version: 6.00 Build 0)  -->
<svg version="1.1" id="Слой_1" xmlns="http://www.w3.org/2000/svg" xmlns:xlink="http://www.w3.org/1999/xlink" x="0px" y="0px"
	 viewBox="0 0 51.566 16.376" style="enable-background:new 0 0 51.566 16.376;" xml:space="preserve">
<style type="text/css">
	.st0{fill:#141515;}
</style>
<g>
	<g>
		<g>
			<path class="st0" d="M25.668,16.376c-0.346,0-0.682-0.179-0.867-0.5c-0.276-0.479-0.112-1.09,0.366-1.366L50.066,0.134
				c0.478-0.276,1.089-0.113,1.366,0.366c0.276,0.479,0.112,1.09-0.366,1.366L26.167,16.242
				C26.009,16.333,25.837,16.376,25.668,16.376z"/>
		</g>
	</g>
	<g>
		<g>
			<path class="st0" d="M25.898,16.376c-0.169,0-0.341-0.043-0.499-0.134L0.5,1.867C0.022,1.591-0.142,0.979,0.134,0.501
				C0.41,0.023,1.019-0.142,1.5,0.134l24.899,14.375c0.479,0.276,0.642,0.888,0.366,1.366C26.58,16.196,26.244,16.376,25.898,16.376
				z"/>
		</g>
	</g>
</g>
</svg>
